<?xml version="1.0" encoding="utf-8"?>
<!DOCTYPE svg PUBLIC "-//W3C//DTD SVG 20010904//EN" "http://www.w3.org/TR/2001/REC-SVG-20010904/DTD/svg10.dtd">
<svg version="1.0" xmlns="http://www.w3.org/2000/svg" width="250px" height="250px" viewBox="0 0 250 250" preserveAspectRatio="xMidYMid meet">
 <g fill="#ffffff">
  <path d="M0 125 l0 -125 125 0 125 0 0 125 0 125 -125 0 -125 0 0 -125z m70 10.1 l0 -12.8 11.5 -0.5 c10.4 -0.4 11.7 -0.7 14 -2.8 2.5 -2.4 2.6 -2.6 2.3 -15.4 l-0.3 -13 -3.5 -2 c-3 -1.8 -5.6 -2.1 -17.7 -2.4 l-14.3 -0.4 0 31.1 0 31.1 4 0 4 0 0 -12.9z"/>
  <path d="M70 104 l0 -16 10 0 10 0 0 16 0 16 -10 0 -10 0 0 -16z"/>
 </g>
 <g fill="#4c545b">
  <path d="M56 120.5 c0 -21.7 0.4 -33.5 1 -33.5 0.6 0 1 11.5 1 32.5 l0 32.5 5.5 0 c3 0 5.5 0.5 5.5 1 0 0.6 -2.8 1 -6.5 1 l-6.5 0 0 -33.5z"/>
  <path d="M109.2 128.8 l0.3 -25.3 2.8 -0.3 2.7 -0.3 0 11 0 11.1 4.5 0 4.5 0 0 -11.1 0 -11 2.8 0.3 2.7 0.3 0.3 25.3 0.2 25.2 -3 0 -3 0 0 -11.5 0 -11.5 -4.5 0 -4.5 0 0 11.5 0 11.5 -3 0 -3 0 0.2 -25.2z"/>
  <path d="M133.7 153.3 c-0.4 -0.3 -0.7 -11.8 -0.7 -25.5 l0 -24.8 3 0 3 0 0 25.5 0 25.5 -2.3 0 c-1.3 0 -2.7 -0.3 -3 -0.7z"/>
  <path d="M143 128.5 l0 -25.5 3 0 3 0 0 22.5 0 22.5 6 0 6 0 0 3 0 3 -9 0 -9 0 0 -25.5z"/>
  <path d="M164 130.5 c0 -22.2 0.1 -23.6 2 -25.5 2.8 -2.8 11.2 -2.8 14 0 1.9 1.9 2 3.3 2 25.5 l0 23.5 -3 0 -3 0 0 -11.5 0 -11.5 -3 0 -3 0 0 11.5 0 11.5 -3 0 -3 0 0 -23.5z m12 -13.5 l0 -8 -3 0 -3 0 0 8 0 8 3 0 3 0 0 -8z"/>
  <path d="M188 152 c-1.6 -1.6 -2 -3.3 -2 -9.5 l0 -7.5 3 0 3 0 0 6.5 0 6.5 3 0 3 0 0 -9 0 -9 -4 0 c-6.7 0 -8 -2.2 -8 -13.5 0 -11.7 1.2 -13.5 9 -13.5 6.4 0 9 2.3 9 8 0 3.8 -0.2 4 -3 4 -2.7 0 -3 -0.3 -3 -3 0 -2.7 -0.3 -3 -3 -3 l-3 0 0 7.5 0 7.5 4 0 c6.9 0 8 2.1 8 15 0 13.4 -1 15 -9 15 -3.7 0 -5.5 -0.5 -7 -2z"/>
  <path d="M59 116.9 l0 -34.1 17.3 0.4 c15.2 0.3 17.6 0.5 20.7 2.4 l3.5 2 0.3 15.7 0.3 15.7 -2.8 3.5 c-3.6 4.4 -6 5.3 -16 5.7 -6.2 0.2 -8.3 0 -8.3 -0.9 0 -1 2.4 -1.3 8.8 -1.3 4.8 0 9.4 -0.5 10.2 -1.1 1.2 -0.9 1.2 -1 -0.3 -0.5 -1 0.3 -5.9 0.6 -10.8 0.6 l-8.9 0 0 13 0 13 -7 0 -7 0 0 -34.1z m28 -12.9 l0 -13 -7 0 -7 0 0 13 0 13 7 0 7 0 0 -13z"/>
  <path d="M83.8 104.9 l0.4 -11.2 -5.1 0.5 c-3.9 0.4 -5.1 0.2 -5.1 -0.8 0 -1 1.6 -1.4 6 -1.4 l6 0 0 12 c0 8.9 -0.3 12 -1.2 12 -1 0 -1.2 -2.7 -1 -11.1z"/>
 </g>
 <g fill="#a5363a">
  <path d="M55 121 c0 -29.6 0.2 -34 1.5 -34 1.3 0 1.5 4.3 1.5 32.5 l0 32.5 5.5 0 c4.2 0 5.5 0.3 5.5 1.5 0 1.2 -1.4 1.5 -7 1.5 l-7 0 0 -34z"/>
  <path d="M74 127.5 c0 -1.2 1.6 -1.5 8.5 -1.5 5.8 0 9.6 -0.5 11.5 -1.5 1.9 -1 3 -1.1 3 -0.5 0 0.6 -1.9 2 -4.2 3 -5.5 2.5 -18.8 2.8 -18.8 0.5z"/>
  <path d="M83 105.5 l0 -10.5 -4.5 0 c-3.3 0 -4.5 -0.4 -4.5 -1.5 0 -1.2 1.3 -1.5 6 -1.5 l6 0 0 12 c0 10 -0.2 12 -1.5 12 -1.2 0 -1.5 -1.8 -1.5 -10.5z"/>
 </g>
 <g fill="#d7d2d5">
 </g>
</svg>