<svg width="240" height="249" viewBox="0 0 240 249" fill="none" xmlns="http://www.w3.org/2000/svg">
<circle cx="120" cy="124" r="114" fill="white"/>
<path d="M66.4512 127.875C66.4512 72.6898 67.4317 42.681 68.9024 42.681C70.3731 42.681 71.3536 71.9268 71.3536 125.332V207.983H84.8351C92.1887 207.983 98.3167 209.255 98.3167 210.526C98.3167 212.052 91.4534 213.07 82.3839 213.07H66.4512V127.875Z" fill="#4C545B"/>
<path d="M73.8048 118.72V32L116.21 33.0172C153.469 33.7802 159.351 34.2888 166.95 39.1207L175.529 44.2069L176.265 84.1338L177 124.061L170.137 132.962C161.312 144.151 155.43 146.44 130.918 147.457C115.72 147.966 110.573 147.457 110.573 145.168C110.573 142.625 116.456 141.862 132.143 141.862C143.909 141.862 155.184 140.591 157.145 139.065C160.087 136.776 160.087 136.522 156.41 137.793C153.959 138.556 141.948 139.319 129.937 139.319H108.121V172.38V205.44H90.9631H73.8048V118.72ZM142.438 85.914V52.8535H125.28H108.121V85.914V118.974H125.28H142.438V85.914Z" fill="#4C545B"/>
<path d="M134.594 88.2028L135.575 59.7199L123.074 60.9915C113.514 62.0087 110.573 61.5001 110.573 58.957C110.573 56.4139 114.495 55.3967 125.28 55.3967H139.987V85.914C139.987 108.548 139.252 116.431 137.046 116.431C134.594 116.431 134.104 109.565 134.594 88.2028Z" fill="#4C545B"/>
<path d="M64 129.147C64 53.8708 64.4902 42.6811 67.6768 42.6811C70.8633 42.6811 71.3536 53.6164 71.3536 125.332V207.983H84.8351C95.1301 207.983 98.3167 208.746 98.3167 211.798C98.3167 214.85 94.885 215.613 81.1583 215.613H64V129.147Z" fill="#A5363A"/>
<path d="M110.573 145.677C110.573 142.625 114.495 141.862 131.408 141.862C145.625 141.862 154.939 140.591 159.597 138.048C164.254 135.505 166.95 135.25 166.95 136.776C166.95 138.302 162.293 141.862 156.655 144.406C143.174 150.763 110.573 151.526 110.573 145.677Z" fill="#A5363A"/>
<path d="M132.633 89.7286V63.0259H121.603C113.514 63.0259 110.573 62.0087 110.573 59.2113C110.573 56.1595 113.759 55.3966 125.28 55.3966H139.987V85.9139C139.987 111.345 139.497 116.431 136.31 116.431C133.369 116.431 132.633 111.854 132.633 89.7286Z" fill="#A5363A"/>
</svg>
